<?xml version="1.0" encoding="utf-8"?>
<!-- Generator: Adobe Illustrator 24.0.2, SVG Export Plug-In . SVG Version: 6.00 Build 0)  -->
<svg version="1.1" id="Layer_1" xmlns="http://www.w3.org/2000/svg" xmlns:xlink="http://www.w3.org/1999/xlink" x="0px" y="0px"
	 viewBox="99.8 141 2980.8 738" style="enable-background:new 99.8 141 2980.8 738;" xml:space="preserve">
<style type="text/css">
	.st0{fill-rule:evenodd;clip-rule:evenodd;fill:#1E96DE;}
	.st1{fill:none;stroke:#D3D2D2;stroke-width:3;stroke-miterlimit:10;}
	.st2{fill:#636466;}
	.st3{font-family:'OpenSans-SemiBold';}
	.st4{font-size:271.3438px;}
	.st5{fill:none;stroke:#D3D2D2;stroke-width:12;stroke-miterlimit:10;}
</style>
<g id="Layer_x0020_1">
	<g id="_1420175589664">
		<path class="st0" d="M491.3,496.4l45.4,11.8c4.5,1,4.1-0.2,6.2,3.6c1.2,2.1,2.2,4.4,3.2,6.6c14.1,33,17.8,66.2,10.6,102.3
			c-1.8,8.8-4.8,20.9-7.9,28.7l-8,18.9c-12.1,26.1-31.2,48.4-54.1,65.7c-0.6,0.5-4.6,3.7-5.1,3.9c-2.1,1-3.8,0.2-6.6-0.7l-44.4-11
			c0.7-2.4,3.3-4.2,6.6-6.9c16.8-14.1,35.4-34.8,45-54.2c16.8-34.1,24.4-55.2,24.4-98c0-13.8-2.2-26.2-4.9-38L491.3,496.4z
			 M373.4,446.4c0,26,2.1,40,9.5,63.8c1.7,5.6,4.4,10.3,5.6,15.8l-45.4-11.7c-4.5-1-4.1,0.2-6.2-3.6c-1.2-2.1-2.2-4.5-3.2-6.7
			c-14.1-32.9-17.7-66.1-10.5-102.2c4.6-22.9,7.9-29,15.6-47.8c1.3-3.2,2-3.6,3.6-6.3c13.7-24.6,27.2-41.4,50.8-59.2
			c8.3-6.3,3.7-5,26.9,0.6c6.3,1.5,24.6,7.2,29.3,7.3c-0.9,3.5-11.3,10.8-14.1,13.6c-15.5,15.6-26.2,26.2-37.5,47.4
			c-3.3,6.3-6.6,12.3-9.1,18.6C380.2,396.8,373.4,421.6,373.4,446.4z M113.2,500.1c0,36.6,0.5,56.7,9.7,92.3
			c10.9,42,26,72.8,50.4,108.7c11.2,16.5,31.9,39.1,46.6,52.7l10.7,9c3.8,3.2,6.8,5.6,10.9,8.7c14.2,10.6,20.3,14.5,35.9,24
			c11.2,6.8,15.8,8.3,26.6,13.6c62.3,30.1,143.2,38.2,213.2,20.7c11-2.8,20.5-5.6,31.1-9.1c20.5-6.8,49.1-20.4,66.8-32.4
			c2.4-1.6,3.8-2.3,6.1-3.8c16.1-10,47.2-36.5,60-50.9l9-10.6c16.5-21.1,17.8-21.2,33.3-47.1c15.1-25.2,27.7-57.2,34.8-85.8
			c12.7-50.7,12.4-106.8-0.2-157.4c-2.8-11.3-5.6-21.1-9.2-31c-13.1-36.4-30.4-66.4-54.5-96.6c-1.6-2-3.1-4-4.8-5.9
			c-12.1-13-12-14.4-25-25.9l-16.1-14.4c-17.2-14.9-46.7-33.5-67.7-43.2l-14.1-6.4c-16.6-7-35.8-13.1-53.5-17.1
			c-21.6-4.9-50.2-8.6-72.8-8.6c-45.4,0-91.2,10.7-132.5,28.4c-2.7,1.2-3.9,2-6.6,3.2l-20.2,10.2c-14.8,8.3-35.8,22.3-47.7,32.7
			l-21.5,18.8l-28.2,31.7c-8.2,10.2-18,24.7-24.8,36c-4.8,8.1-10,16.9-14,26.2c-4.6,10.7-7.9,15.9-12,28.3c-1.6,5-3.2,8.8-4.9,14.8
			C119.8,440.8,113.2,468.8,113.2,500.1z"/>
	</g>
</g>
<line class="st1" x1="917" y1="271.5" x2="914.2" y2="774.6"/>
<text transform="matrix(1 0 0 1 1080.4854 431.7827)" class="st2 st3 st4">Life Science</text>
<text transform="matrix(1 0 0 1 1080.4854 787.9248)" class="st2 st3 st4">Analytics Cloud</text>
<line class="st5" x1="926.2" y1="271.2" x2="923.4" y2="774.3"/>
<line class="st5" x1="921.8" y1="271.9" x2="919.1" y2="774.9"/>
</svg>
