<?xml version="1.0" encoding="UTF-8" standalone="no"?>
<svg width="96px" height="76px" viewBox="0 0 96 76" version="1.1" xmlns="http://www.w3.org/2000/svg" xmlns:xlink="http://www.w3.org/1999/xlink" xmlns:sketch="http://www.bohemiancoding.com/sketch/ns">
    <title>Untitled</title>
    <description>Created with Sketch (http://www.bohemiancoding.com/sketch)</description>
    <defs></defs>
    <g id="Page-1" stroke="none" stroke-width="1" fill="none" fill-rule="evenodd" sketch:type="MSPage">
        <g id="cc_logo_white" sketch:type="MSLayerGroup">
            <g id="Group" sketch:type="MSShapeGroup">
                <path d="M17.5,44.5 L26.8,49.9 L26.8,60.6 L17.5,66 L8.2,60.6 L8.2,49.9 L17.5,44.5 L17.5,44.5 Z M17.5,35.2 L0.2,45.2 L0.2,65.2 L17.5,75.2 L34.8,65.2 L34.8,45.2 L17.5,35.2 L17.5,35.2 Z" id="Shape" fill="#0092C8"></path>
                <path d="M57.8,44.4 L67.1,49.8 L67.1,60.5 L57.8,65.9 L48.5,60.5 L48.5,49.8 L57.8,44.4 L57.8,44.4 Z M57.8,35.2 L40.5,45.2 L40.5,65.2 L57.8,75.2 L75.1,65.2 L75.1,45.2 L57.8,35.2 L57.8,35.2 Z" id="Shape" fill="#FFFFFF"></path>
                <path d="M37.7,9.7 L47,15.1 L47,25.8 L37.7,31.2 L28.4,25.8 L28.4,15.1 L37.7,9.7 L37.7,9.7 Z M37.7,0.5 L20.4,10.5 L20.4,30.5 L37.7,40.5 L55,30.5 L55,10.5 L37.7,0.5 L37.7,0.5 Z" id="Shape" fill="#FFFFFF"></path>
                <path d="M78,9.7 L87.3,15.1 L87.3,25.8 L78,31.2 L68.7,25.8 L68.7,15.1 L78,9.7 L78,9.7 Z M78,0.5 L60.7,10.5 L60.7,30.5 L78,40.5 L95.3,30.5 L95.3,10.5 L78,0.5 L78,0.5 Z" id="Shape" fill="#FFFFFF"></path>
            </g>
        </g>
    </g>so
</svg>
