<?xml version="1.0" encoding="utf-8"?>
<!-- Generator: Adobe Illustrator 24.0.2, SVG Export Plug-In . SVG Version: 6.00 Build 0)  -->
<svg version="1.1" id="Layer_1" xmlns="http://www.w3.org/2000/svg" xmlns:xlink="http://www.w3.org/1999/xlink" x="0px" y="0px"
	 viewBox="0 0 309 70" style="enable-background:new 0 0 309 70;" xml:space="preserve">
<style type="text/css">
	.st0{clip-path:url(#SVGID_3_);}
	.st1{clip-path:url(#SVGID_4_);}
	.st2{fill:#1F2739;}
	.st3{fill:#009DD6;}
	.st4{fill-rule:evenodd;clip-rule:evenodd;fill:#1E96DE;}
	.st5{fill-rule:evenodd;clip-rule:evenodd;fill:#333333;}
	.st6{fill:none;stroke:#D3D2D2;stroke-miterlimit:10;}
	.st7{fill:#636466;}
	.st8{font-family:'OpenSans-SemiBold';}
	.st9{font-size:18.2493px;}
</style>
<g>
	<g>
		<defs>
			<polygon id="SVGID_1_" points="-604,-1463 -603,-1463 -604,-1462 			"/>
		</defs>
		<defs>
			<polygon id="SVGID_2_" points="-606,-1465 -607,-1465 -606,-1466 			"/>
		</defs>
		<clipPath id="SVGID_3_">
			<use xlink:href="#SVGID_1_"  style="overflow:visible;"/>
		</clipPath>
		<clipPath id="SVGID_4_" class="st0">
			<use xlink:href="#SVGID_2_"  style="overflow:visible;"/>
		</clipPath>
		<g transform="translate(-605 -1464)" class="st1">
			<g>
				<g>
					<g>
						<g>
							<path id="_x39_0dia" class="st2" d="M701.1,1520.6l-0.2,2.8c-1.4,0.7-3,1.1-4.6,1c-3.7,0-6.5-1-8.4-3c-1.9-2-2.9-4.6-2.9-7.3
								c0-3,1-5.6,3-7.8c2-2.2,4.7-3.3,8.1-3.3c1.7,0,3,0.2,4.1,0.5l-0.6,3.3c-1.4-0.5-3-0.8-4.5-0.8c-2,0-3.6,0.7-4.8,2.1
								c-1.2,1.5-1.8,3.3-1.8,5.2c0,2.3,0.7,4.2,2.1,5.7c1.4,1.5,3.4,2.3,6,2.3C697.7,1521.4,699.2,1521.2,701.1,1520.6"/>
						</g>
					</g>
					<g>
						<g>
							<path id="_x39_0dib" class="st2" d="M724.6,1513.2c0,3.6-1,6.4-3.1,8.5c-1.9,2-4.6,3.1-7.3,3c-2.6,0-4.9-0.9-6.8-2.7
								c-1.9-1.8-2.8-4.3-2.8-7.6c0-3.7,1-6.5,3.1-8.5c1.9-2,4.6-3.1,7.3-3.1c2.6,0,4.9,0.9,6.8,2.7
								C723.6,1507.4,724.6,1509.9,724.6,1513.2 M720.9,1513.9c0-2.2-0.5-4.2-1.7-5.9c-1-1.7-2.8-2.6-4.7-2.6c-2,0-3.6,0.8-4.7,2.4
								c-1.1,1.7-1.7,3.7-1.6,5.7c0,2.2,0.5,4.2,1.7,5.9c1,1.7,2.8,2.6,4.8,2.6c2,0,3.6-0.8,4.7-2.4
								C720.4,1517.9,721,1515.9,720.9,1513.9"/>
						</g>
					</g>
					<g>
						<g>
							<path id="_x39_0dic" class="st2" d="M756,1511.6c0-2.3-0.4-3.8-1.2-4.5c-0.8-0.7-2.1-1.1-3.9-1.1c-1.5,0-3.1,0.7-4.7,2.2
								c-0.1,1.7-0.1,3.4-0.1,5.1c0,2.4,0,5.9,0.1,10.6h-3.8c0.3-4,0.5-8.1,0.5-12.3c0-2.3-0.4-3.8-1.2-4.5c-0.8-0.7-2-1.1-3.8-1.1
								c-1.8,0-3.4,0.8-5,2.2c0,4.5,0,9.7,0.1,15.6h-3.8c0.3-4.8,0.4-8.3,0.4-10.4c0-3.3-0.3-6.5-1-9.6l3.7-0.5l0.4,2.6h0.2
								c1.8-1.9,3.9-2.8,6.1-2.8c3.3,0,5.5,0.9,6.5,2.8h0.2c2.1-1.9,4.2-2.8,6.3-2.8c2.4,0,4.2,0.5,5.4,1.6c1.2,1,1.8,2.9,1.8,5.5
								l0,1.6c0,0.8,0,1.3,0,1.6c0,2.4,0,5.9,0.1,10.6h-3.8C755.9,1520.2,756,1516.1,756,1511.6"/>
						</g>
					</g>
					<g>
						<g>
							<path id="_x39_0did" class="st2" d="M784.1,1513c0,3.1-0.9,5.7-2.6,8c-1.8,2.3-4.2,3.4-7.3,3.4c-2.6,0-4.3-0.5-5.1-1.4h-0.2
								c0,3.9,0,7.4,0.1,10.5h-4c0.3-3.8,0.5-8.4,0.5-13.9c0-6.8-0.4-12.1-1.1-15.8l3.7-0.5l0.3,2.1h0.2c1.4-1.6,3.6-2.4,6.6-2.4
								c2.7,0,4.8,1,6.4,3C783.4,1508,784.2,1510.4,784.1,1513 M780.3,1513.5c0-2.1-0.5-3.9-1.6-5.4c-1.1-1.5-2.8-2.3-4.6-2.2
								c-2.5,0-4.4,0.8-5.5,2.3c0.2,4.8,0.3,8.8,0.3,12.2c1.3,1,2.8,1.5,4.5,1.4c2.3,0,4.1-0.8,5.2-2.5
								C779.8,1517.7,780.4,1515.6,780.3,1513.5"/>
						</g>
					</g>
					<g>
						<g>
							<path id="_x39_0die" class="st2" d="M801.8,1503.8l-1,3.4c-1-0.4-2-0.6-3.1-0.7c-2.7,0-4.4,1.3-5.2,3.8c0,6.5,0,11,0.1,13.6
								H789c0.2-4.5,0.3-8,0.3-10.4c0-3.3-0.3-6.6-1-9.6l3.7-0.5c0.3,1.6,0.4,2.6,0.4,3.1h0.2c1.5-2.2,3.3-3.4,5.3-3.4
								C799,1503,800.3,1503.3,801.8,1503.8"/>
						</g>
					</g>
					<g>
						<g>
							<path id="_x39_0dif" class="st2" d="M821.7,1511.4c0,0.6,0,1.4-0.1,2.4l-14.5,0.3c0.1,2.1,0.9,3.8,2.4,5.2
								c1.5,1.4,3.4,2.1,5.8,2.1c2.1,0,4.2-0.3,6-0.8l-0.4,3c-1.4,0.5-3.4,0.8-6,0.8c-3.7,0-6.5-1-8.4-3c-1.9-2-2.9-4.6-2.9-7.3
								c0-3.1,0.9-5.7,2.6-7.9c1.7-2.2,4.3-3.4,7.1-3.3c2.7,0,4.8,0.8,6.2,2.4C821,1506.8,821.7,1508.9,821.7,1511.4L821.7,1511.4z
								 M818.2,1511.5c0-4-1.7-6-5-6c-3.4,0-5.4,2.1-6,6.2L818.2,1511.5z"/>
						</g>
					</g>
					<g>
						<g>
							<path id="_x39_0dig" class="st2" d="M844.5,1523.9h-3.9c0.3-3.7,0.5-7.7,0.5-12c0-2.3-0.4-3.8-1.3-4.6
								c-1-0.8-2.2-1.3-3.5-1.2c-2.1,0-4.1,0.7-6,2.2c0,7.7,0,12.9,0.2,15.7h-3.7c0.1-3.7,0.2-9,0.2-15.8c0-6-0.2-10.6-0.6-14l4-0.2
								c-0.1,4.3-0.2,8.3-0.2,12h0.1c1.9-1.8,4.4-2.8,7-2.8c2.3,0,4,0.5,5.3,1.6c1.3,1.1,1.9,2.9,1.9,5.5c0,0.3,0,0.8,0,1.6
								s0,1.5,0,2.1C844.4,1515.9,844.5,1519.2,844.5,1523.9"/>
						</g>
					</g>
					<g>
						<g>
							<path id="_x39_0dih" class="st2" d="M867.4,1511.4c0,0.6,0,1.4-0.1,2.4l-14.5,0.3c0.1,2.1,0.9,3.8,2.4,5.2
								c1.5,1.4,3.4,2.1,5.8,2.1c2.2,0,4.2-0.3,6-0.8l-0.4,3c-1.4,0.5-3.4,0.8-6,0.8c-3.7,0-6.5-1-8.4-3c-1.9-2-2.9-4.4-2.9-7.3
								c0-3.1,0.9-5.7,2.6-7.9c1.7-2.2,4.3-3.4,7.1-3.3c2.7,0,4.8,0.8,6.2,2.4C866.7,1506.8,867.4,1508.9,867.4,1511.4L867.4,1511.4
								z M863.9,1511.5c0-4-1.7-6-5-6c-3.4,0-5.4,2.1-6,6.2L863.9,1511.5z"/>
						</g>
					</g>
					<g>
						<g>
							<path id="_x39_0dii" class="st2" d="M890.2,1523.9h-3.8c0.3-4,0.5-8.1,0.5-12.2c0-2.2-0.4-3.7-1.3-4.5
								c-0.9-0.8-2.1-1.2-3.8-1.2c-2,0-3.8,0.7-5.5,2.2c0,4.8,0,10,0.1,15.7h-3.8c0.2-4.8,0.4-8.3,0.4-10.4c0-3.3-0.3-6.5-0.9-9.6
								l3.7-0.5l0.4,2.6h0.2c2.1-1.9,4.3-2.8,6.7-2.8c2.3,0,4.2,0.5,5.4,1.6c1.3,1,1.9,2.9,1.9,5.5l0,1.6c0,0.8,0,1.3,0,1.6
								C890.1,1515.7,890.2,1519.2,890.2,1523.9"/>
						</g>
					</g>
					<g>
						<g>
							<path id="_x39_0dij" class="st2" d="M914,1523.9l-3.2,0.1c-0.1-0.6-0.2-1.2-0.2-1.9h-0.2c-1.5,1.6-3.7,2.4-6.6,2.4
								c-2.5,0.1-4.9-1-6.4-2.9c-1.6-2-2.4-4.5-2.4-7.1c0-3.1,0.9-5.8,2.7-8.1c1.8-2.3,4.2-3.4,7.5-3.4c2.3,0,3.9,0.5,4.9,1.4h0.2
								c0-3.5-0.1-6.9-0.3-10.3l4-0.2c-0.3,3.6-0.4,8.3-0.4,14.1C913.6,1513.9,913.7,1519.2,914,1523.9 M910.6,1519.7
								c0-4.4-0.1-8.6-0.4-12.7c-1.2-1-2.7-1.5-4.3-1.4c-2.4,0-4.2,0.8-5.3,2.4c-1.2,1.7-1.9,3.8-1.8,6c0,2.2,0.6,4,1.7,5.4
								c1.1,1.5,2.8,2.3,4.7,2.2C907.7,1521.6,909.5,1520.9,910.6,1519.7"/>
						</g>
					</g>
				</g>
				<g>
					<g>
						<g>
							<path id="_x39_0dik" class="st3" d="M620.7,1503.4l8.4,4.8v9.6l-8.4,4.8l-8.5-4.8v-9.6L620.7,1503.4z M620.7,1495.2l-15.7,9
								l0,17.9l15.7,8.9l15.7-9l0-17.9L620.7,1495.2z"/>
						</g>
					</g>
					<g>
						<g>
							<path id="_x39_0dil" class="st2" d="M657.3,1503.4l8.4,4.8v9.6l-8.4,4.8l-8.4-4.8v-9.7L657.3,1503.4z M657.3,1495.1l-15.7,9
								l0,17.9l15.7,8.9l15.7-9l0-17.9L657.3,1495.1z"/>
						</g>
					</g>
					<g>
						<g>
							<path id="_x39_0dim" class="st2" d="M639,1472.3l8.4,4.8v9.6l-8.4,4.8l-8.4-4.8v-9.6L639,1472.3z M639,1464l-15.7,9v17.9
								l15.7,8.9l15.7-9l0-17.9L639,1464z"/>
						</g>
					</g>
					<g>
						<g>
							<path id="_x39_0din" class="st2" d="M675.5,1472.3l8.4,4.8v9.6l-8.4,4.8l-8.4-4.8v-9.6L675.5,1472.3z M675.5,1464l-15.7,9
								l0,17.9l15.7,8.9l15.7-9v-17.9L675.5,1464z"/>
						</g>
					</g>
				</g>
			</g>
		</g>
	</g>
</g>
<g id="Layer_1-2">
	<g id="_1420175589664">
		<path class="st4" d="M30.2,34.1l3.5,0.9c0.4,0.1,0.3,0,0.5,0.3c0.1,0.2,0.2,0.3,0.3,0.5c1.1,2.5,1.4,5.3,0.8,8
			c-0.1,0.8-0.4,1.5-0.6,2.3l-0.6,1.5c-1,2-2.4,3.8-4.2,5.1c-0.1,0-0.4,0.3-0.4,0.3c0,0-0.3,0-0.5-0.1L25.5,52
			c0-0.2,0.3-0.3,0.5-0.5c3.5-2.9,5.5-7.3,5.4-11.8c0-1-0.1-2-0.4-2.9L30.2,34.1z M21.1,30.2c-0.1,1.7,0.2,3.4,0.7,5
			c0.1,0.4,0.3,0.8,0.4,1.2l-3.5-0.9c-0.4-0.1-0.3,0-0.5-0.3c-0.1-0.2-0.2-0.3-0.3-0.5c-1.1-2.5-1.4-5.3-0.8-7.9
			c0.2-1.3,0.6-2.5,1.2-3.7c0.1-0.2,0.2-0.3,0.3-0.5c0.9-1.8,2.3-3.4,3.9-4.6c0.6-0.5,0.3-0.4,2.1,0c0.5,0.1,1.9,0.6,2.3,0.6
			c-0.1,0.3-0.9,0.8-1.1,1c-1.2,1.1-2.2,2.3-2.9,3.7c-0.3,0.5-0.5,1-0.7,1.4C21.6,26.5,21.1,28.3,21.1,30.2L21.1,30.2z M0.9,34.4
			c-0.1,2.4,0.1,4.8,0.8,7.2c0.8,3,2.1,5.9,3.9,8.4c1.1,1.5,2.3,2.8,3.6,4.1l0.8,0.7c0.3,0.3,0.5,0.4,0.8,0.7
			c0.9,0.7,1.8,1.3,2.8,1.9c0.7,0.4,1.4,0.7,2.1,1c5.2,2.4,11,3,16.5,1.6c0.9-0.2,1.6-0.4,2.4-0.7c1.8-0.6,3.6-1.5,5.2-2.5l0.5-0.3
			c1.7-1.1,3.2-2.5,4.7-3.9l0.7-0.8c1-1.1,1.8-2.4,2.6-3.7c3.3-5.7,4.3-12.5,2.7-18.9c-0.2-0.8-0.4-1.6-0.7-2.4
			c-1-2.7-2.4-5.3-4.2-7.5l-0.4-0.5c-0.6-0.7-1.3-1.4-1.9-2l-1.3-1.1c-1.6-1.3-3.4-2.5-5.2-3.4l-1.1-0.5c-1.3-0.6-2.7-1-4.2-1.3
			c-1.9-0.4-3.7-0.6-5.6-0.7c-3.5,0-7,0.8-10.3,2.2c-0.2,0.1-0.3,0.1-0.5,0.2L13.9,13c-1.3,0.7-2.5,1.6-3.7,2.5l-1.7,1.5l-2.2,2.5
			c-0.7,0.9-1.3,1.8-1.9,2.8c-0.4,0.7-0.8,1.3-1.1,2c-0.3,0.7-0.7,1.5-0.9,2.2C2.2,27,2.1,27.2,2,27.7C1.3,29.9,0.9,32.1,0.9,34.4
			L0.9,34.4z"/>
		<path class="st5" d="M110.9,30.9c0.2-1.1,0.3-2.2,0.4-3.3h-3.4c-0.2,0-0.2,0.1-0.2,0.3L105.1,41c-0.2,0.6-0.3,1.3-0.4,2h3.7
			c0.3-1.3,0.5-2.6,0.8-3.9c0.8-3.1,0.8-5.9,3.7-8.2c0.6-0.6,1.4-0.8,2.3-0.8c0.5,0,1,0.3,1.2,0.8c0.2,0.6,0.3,1.2,0.1,1.8
			c-0.2,1.5-1.7,8.5-2.1,10.3h2.8c0.1,0,0.6,0,0.7,0c0.3,0,0.2-0.1,0.3-0.4l1.2-5.9c0.1-1.5,0.7-2.9,1.6-4.1c0.7-0.9,2-2.4,3.3-2.4
			h0.6c1.8,0,1.4,2.5,1.2,3.6l-0.8,4c-0.4,1.8-0.7,3.6-1.1,5.3h3.7c0.4-1.7,2.3-10.3,2.3-11.4c0.1-1.2-0.2-2.4-1-3.3
			c-1.6-1.6-4.6-1.1-6.3,0.2c-0.9,0.6-1.6,1.4-2.3,2.3l-0.1,0.1c-0.1-0.9-0.4-1.7-0.9-2.4c-0.2-0.3-0.4-0.5-0.7-0.7
			c-0.2-0.1-0.4-0.2-0.7-0.3c-2-0.6-4.1,0-5.6,1.5l-0.6,0.6L110.9,30.9z"/>
		<path class="st5" d="M77.5,38.6c0-1.6,0.5-2.2,2.2-2.6l4-0.5c0.2,1.2-0.1,2.5-0.7,3.6c-0.9,1.4-2.7,1.9-4.2,1.3
			C78,40.1,77.5,39.4,77.5,38.6z M75.6,28.7v3c1.4-1.2,3.3-1.9,5.1-1.9c2.1,0,3,1.2,3,3.3c-0.5,0-2.6,0.3-3.3,0.4
			c-1.9,0.3-4.1,0.5-5.4,2.1C73.4,38,73.8,42,77,43.1c1.6,0.6,3.4,0.4,4.9-0.5c0.7-0.5,1.4-1.2,1.8-2V43h3.4V32.5
			c0-0.7-0.2-1.5-0.4-2.2c-0.8-1.9-2.7-3.1-4.7-3h-1.4C78.8,27.3,77.1,27.8,75.6,28.7z"/>
		<path class="st5" d="M93,38.6c0-2.5,1.7-2.5,4.1-2.9c0.7-0.1,1.4-0.2,2-0.3c0.2,1.2-0.1,2.5-0.7,3.6c-0.4,0.6-1,1.1-1.7,1.3
			c-0.8,0.3-1.7,0.3-2.5,0c-0.3-0.1-0.6-0.4-0.9-0.7C93.1,39.5,93,39.1,93,38.6z M91.1,28.7v3c1.4-1.2,3.2-1.9,5.1-1.9
			c2.1,0,3,1.2,3,3.3c-0.5,0-2.6,0.3-3.3,0.4c-1.1,0.1-2.1,0.3-3.1,0.6c-1.9,0.6-3.2,2.3-3.2,4.3v0.8c0,1.7,1.2,3.3,2.8,3.8
			c1.6,0.6,3.4,0.4,4.9-0.5c0.7-0.5,1.3-1.1,1.7-1.8c0-0.1,0.1-0.1,0.1-0.1V43h3.4V32.5c0-0.7-0.2-1.5-0.4-2.2
			c-0.8-1.9-2.7-3.1-4.7-3h-1.4C94.3,27.3,92.6,27.8,91.1,28.7L91.1,28.7z"/>
		<path class="st5" d="M135,38.6c-0.1-0.7,0.1-1.4,0.7-1.9c1.1-0.6,2.3-0.9,3.5-0.9c0.7-0.1,1.3-0.2,2-0.3c0.2,1.2-0.1,2.5-0.7,3.6
			C138.8,41.6,135,41,135,38.6z M133,28.7v3c1.4-1.2,3.3-1.9,5.1-1.9c2.1,0,3,1.2,3,3.3c-0.5,0-2.6,0.3-3.3,0.4
			c-1.9,0.3-4.1,0.5-5.3,2.1c-1.7,2.3-1.3,6.3,1.9,7.4c1.6,0.6,3.4,0.4,4.9-0.5c0.4-0.2,0.7-0.5,1-0.9c0.3-0.4,0.6-0.7,0.9-1.1v2.3
			h3.4V32.4c0-0.7-0.2-1.5-0.4-2.2c-0.8-1.9-2.7-3.1-4.7-3H138C136.3,27.3,134.5,27.8,133,28.7z"/>
		<path class="st5" d="M61.4,31.4c-0.2,1.2,0.2,2.4,1.1,3.2c0.6,0.6,1.3,1.1,2.1,1.4l1.8,0.7c1.1,0.4,2.4,0.8,2.4,2.3
			c0,0.4-0.2,0.7-0.5,1c-0.8,0.7-2.1,0.7-3.1,0.7c-2.1,0-3.4-1.3-3.9-1.4v3.2c0.6,0.3,1.3,0.5,2,0.7c2.7,0.6,6.6,0.3,8.4-2.2
			c0.4-0.6,0.7-1.4,0.7-2.2c0-2.3-1.4-3.4-3-4.2S65,33.4,65,31.9c-0.1-0.7,0.2-1.4,0.9-1.6c0.7-0.3,1.5-0.5,2.2-0.4
			c1.2,0,2.4,0.4,3.4,1.1v-3.1c-1-0.4-2.1-0.6-3.2-0.6c-1.7-0.2-3.5,0.2-5,1.1C62.3,29.1,61.6,30.2,61.4,31.4z"/>
	</g>
</g>
<line class="st6" x1="158.7" y1="11.4" x2="158.5" y2="59.1"/>
<text transform="matrix(1 0 0 1 172.9531 28.5464)" class="st7 st8 st9">Life Science</text>
<text transform="matrix(1 0 0 1 172.9531 52.498)" class="st7 st8 st9">Analytics Cloud</text>
</svg>
