<?xml version="1.0" encoding="UTF-8"?>
<!DOCTYPE svg PUBLIC "-//W3C//DTD SVG 1.1//EN" "http://www.w3.org/Graphics/SVG/1.1/DTD/svg11.dtd">
<!-- Creator: CorelDRAW X7 -->
<svg xmlns="http://www.w3.org/2000/svg" xml:space="preserve" width="252.448mm" height="89.3558mm" version="1.1" style="shape-rendering:geometricPrecision; text-rendering:geometricPrecision; image-rendering:optimizeQuality; fill-rule:evenodd; clip-rule:evenodd"
viewBox="0 0 23961 8481"
 xmlns:xlink="http://www.w3.org/1999/xlink">
 <defs>
  <style type="text/css">
   <![CDATA[
    .fil0 {fill:#1E96DE}
    .fil1 {fill:#333333}
   ]]>
  </style>
 </defs>
 <g id="Layer_x0020_1">
  <metadata id="CorelCorpID_0Corel-Layer"/>
  <g id="_1420175589664">
   <path class="fil0" d="M4894 4049l588 153c58,13 53,-2 80,47 15,27 29,57 41,86 183,427 230,857 137,1324 -23,114 -62,271 -102,372l-104 244c-156,338 -404,627 -700,850 -8,7 -60,48 -66,50 -27,13 -49,2 -86,-9l-575 -143c9,-31 43,-54 85,-89 217,-183 458,-451 583,-702 218,-441 316,-715 316,-1269 0,-179 -29,-339 -63,-492l-134 -422zm-1527 -648c0,337 27,518 123,826 22,72 57,133 73,204l-588 -152c-58,-13 -53,2 -80,-47 -15,-27 -28,-58 -41,-87 -182,-426 -229,-856 -136,-1323 59,-296 102,-375 202,-619 17,-41 26,-47 46,-82 177,-318 352,-536 657,-766 107,-81 48,-65 348,8 81,19 318,93 379,95 -12,45 -146,140 -182,176 -201,202 -339,339 -485,614 -43,81 -85,159 -118,241 -110,270 -198,592 -198,912zm-3367 695c0,474 6,734 125,1194 141,543 337,942 652,1407 145,213 413,506 603,682l138 116c49,42 88,73 141,113 184,137 263,188 465,311 145,88 204,108 344,176 806,390 1853,495 2759,268 142,-36 265,-72 403,-118 265,-88 635,-264 865,-419 31,-21 49,-30 79,-49 208,-130 611,-472 776,-659l117 -137c214,-273 231,-275 431,-610 196,-326 358,-740 451,-1111 164,-656 161,-1382 -3,-2037 -36,-146 -72,-273 -119,-401 -170,-471 -394,-859 -705,-1250 -21,-26 -40,-52 -62,-77 -157,-168 -155,-186 -324,-335l-208 -186c-222,-193 -604,-434 -876,-559l-183 -83c-215,-91 -463,-169 -693,-221 -279,-63 -650,-111 -942,-111 -588,0 -1181,138 -1715,367 -35,15 -51,26 -86,41l-262 132c-192,107 -464,288 -618,423l-278 243 -365 410c-106,132 -233,320 -321,466 -62,105 -129,219 -181,339 -59,139 -102,206 -155,366 -21,65 -41,114 -64,191 -104,351 -189,713 -189,1118z"/>
   <path class="fil1" d="M18349 3506c15,-173 70,-327 70,-544l-567 0c-39,0 -32,20 -37,56l-442 2184c-15,65 -65,275 -65,328l613 0c50,-214 88,-434 139,-648 125,-522 128,-990 613,-1365 156,-120 219,-127 382,-127 95,0 170,65 203,133 43,86 39,187 25,292 -33,249 -286,1419 -355,1715 158,0 316,0 474,0 20,0 103,3 116,0 48,-10 31,-16 42,-73l208 -984c64,-290 75,-435 264,-685 114,-151 338,-398 550,-398l93 0c298,0 235,408 200,593l-139 659c-65,300 -120,596 -188,888l613 0c67,-288 382,-1710 382,-1909 0,-221 -25,-406 -171,-558 -263,-274 -764,-181 -1058,36 -173,128 -254,228 -375,388 -17,21 -6,7 -16,19 -30,-128 -32,-269 -141,-403 -52,-63 -33,-52 -120,-111 -36,-25 -69,-39 -109,-54 -331,-121 -709,31 -929,252 -36,36 -62,63 -98,99l-177 217z"/>
   <path class="fil1" d="M12784 4801c0,-266 87,-371 369,-429l661 -91c0,238 18,408 -113,604 -161,241 -493,324 -709,218 -119,-59 -208,-153 -208,-302zm-324 -1654l0 509c79,-21 303,-312 857,-312 341,0 497,201 497,543 -81,0 -436,57 -542,72 -311,44 -687,86 -893,356 -283,373 -218,1053 311,1228 281,94 574,71 816,-78 172,-107 230,-239 308,-328l0 393 567 0 0 -1758c0,-134 -33,-264 -68,-361 -117,-326 -456,-507 -788,-507l-231 0c-297,0 -657,124 -834,243z"/>
   <path class="fil1" d="M15364 4801c0,-422 277,-417 691,-477 90,-13 240,-43 339,-43 0,238 18,408 -113,604 -61,92 -168,186 -284,225 -133,44 -306,51 -425,-7 -59,-29 -106,-56 -143,-111 -35,-52 -65,-109 -65,-191zm-323 -1654l0 509c78,-21 302,-312 856,-312 341,0 497,201 497,543 -81,0 -436,57 -542,72 -178,25 -368,46 -521,104 -310,116 -533,359 -533,715l0 128c0,295 209,550 472,637 281,94 574,71 816,-78 133,-83 201,-186 287,-303 10,-13 13,-15 21,-25l0 393 567 0 0 -1758c0,-134 -33,-264 -68,-361 -117,-326 -456,-507 -788,-507l-231 0c-297,0 -657,124 -833,243z"/>
   <path class="fil1" d="M22364 4801c0,-127 12,-244 107,-321 142,-113 398,-130 584,-156 90,-13 239,-43 339,-43 0,238 18,408 -113,604 -272,406 -917,308 -917,-84zm-324 -1654l0 509c78,-21 303,-312 856,-312 342,0 498,201 498,543 -81,0 -437,57 -542,72 -311,44 -688,86 -893,356 -283,373 -218,1053 311,1228 281,94 574,71 815,-78 69,-43 112,-91 167,-146 78,-77 90,-123 142,-182l0 393 567 0 0 -1758c0,-134 -33,-264 -68,-361 -118,-326 -456,-507 -788,-507l-232 0c-296,0 -656,124 -833,243z"/>
   <path class="fil1" d="M10100 3598c0,220 5,370 177,541 109,109 206,165 359,231l307 121c191,71 395,139 395,380 0,63 -34,127 -76,167 -130,125 -358,110 -525,110 -353,0 -569,-224 -648,-231l0 532c89,48 214,84 331,109 455,98 1108,46 1397,-370 64,-91 111,-217 111,-363 0,-385 -240,-561 -501,-691 -273,-136 -737,-208 -737,-455 0,-112 -1,-186 149,-268 124,-68 229,-67 372,-67 239,0 435,89 578,185l0 -521c-162,-38 -251,-104 -532,-104 -318,0 -563,12 -831,187 -155,102 -326,301 -326,507z"/>
  </g>
 </g>
</svg>
